<?xml version="1.0" encoding="UTF-8" standalone="no"?>
<!-- Generator: Adobe Illustrator 17.0.1, SVG Export Plug-In . SVG Version: 6.00 Build 0)  -->

<svg
   version="1.1"
   x="0px"
   y="0px"
   width="86px"
   height="86px"
   viewBox="0 0 86 86"
   enable-background="new 0 0 86 86"
   xml:space="preserve"
   id="svg1081"
   sodipodi:docname="harbour-monit.svg"
   inkscape:version="1.2.1 (9c6d41e410, 2022-07-14)"
   xmlns:inkscape="http://www.inkscape.org/namespaces/inkscape"
   xmlns:sodipodi="http://sodipodi.sourceforge.net/DTD/sodipodi-0.dtd"
   xmlns="http://www.w3.org/2000/svg"
   xmlns:svg="http://www.w3.org/2000/svg"><defs
   id="defs1085" /><sodipodi:namedview
   id="namedview1083"
   pagecolor="#ffffff"
   bordercolor="#666666"
   borderopacity="1.0"
   inkscape:showpageshadow="2"
   inkscape:pageopacity="0.0"
   inkscape:pagecheckerboard="0"
   inkscape:deskcolor="#d1d1d1"
   showgrid="false"
   inkscape:zoom="1.4594355"
   inkscape:cx="23.639277"
   inkscape:cy="-23.639277"
   inkscape:window-width="1278"
   inkscape:window-height="1128"
   inkscape:window-x="1271"
   inkscape:window-y="0"
   inkscape:window-maximized="0"
   inkscape:current-layer="Layer_1" />
<g
   id="Layer_2"
   display="none">
	<rect
   x="-21"
   y="-19"
   display="inline"
   fill="#32332F"
   width="497"
   height="300"
   id="rect1049" />
</g>
<g
   id="Layer_1"
   style="display:inline">
	<linearGradient
   id="SVGID_1_"
   gradientUnits="userSpaceOnUse"
   x1="12.8065"
   y1="73.193497"
   x2="85.282898"
   y2="0.71710002"
   gradientTransform="rotate(-90,43,43)">
		<stop
   offset="0"
   style="stop-color:#868688;stop-opacity:1;"
   id="stop1052" />
		<stop
   offset="0.99510002"
   style="stop-color:#dadada;stop-opacity:1;"
   id="stop1054" />
	</linearGradient>
	<path
   fill="url(#SVGID_1_)"
   d="M 1.723,0.301 C 0.937,0.301 0.3,0.938 0.3,1.724 c 0,0 0,40.641 0,41.276 C 0.3,66.583 19.417,85.7 43,85.7 66.582,85.7 85.7,66.583 85.7,43 85.7,19.417 66.582,0.3 43,0.3 42.364,0.3 1.723,0.301 1.723,0.301 Z"
   id="path1057"
   style="display:inline;fill:url(#SVGID_1_)" />
	<g
   id="g1066"
   transform="rotate(-90,43,43)">
		<linearGradient
   id="SVGID_2_"
   gradientUnits="userSpaceOnUse"
   x1="20.355101"
   y1="65.644997"
   x2="65.644997"
   y2="20.355">
			<stop
   offset="0"
   style="stop-color:#DCDCE0"
   id="stop1059" />
			<stop
   offset="1"
   style="stop-color:#ffffff;stop-opacity:1;"
   id="stop1061" />
		</linearGradient>
		
	</g><path
   style="display:inline;fill:none;stroke:#2d6c96;stroke-width:1.88976378;stroke-dasharray:none;stroke-opacity:0.7399528"
   d="M 0.79645108,22.573648 C 3.1072002,20.146703 8.0165602,21.531264 9.5457253,18.541887 10.291068,17.084726 9.4539072,15.77242 8.6812942,14.556524 6.672327,11.395026 5.8963688,8.5131244 10.426206,6.8907655 c 3.425302,-1.2267303 4.932037,4.2833045 8.402803,2.5128107 3.782606,-1.9295939 1.070587,-11.2760236 8.40561,-8.2342529 3.332816,1.3820834 0.44004,6.900695 4.459137,8.4120724 4.397663,1.6537293 7.538176,-6.9561901 11.374504,-0.2359838 1.69203,2.9643611 -4.175538,5.6224031 -2.642283,8.8114091 1.51601,3.152734 7.902933,1.482044 8.459852,4.835311 1.314862,7.917983 -6.623255,3.117532 -8.586769,8.007215 -1.69062,4.209734 5.783722,5.588847 1.416227,9.991609 -0.473875,0.477412 -1.006317,0.949212 -1.597342,1.263886 -2.054473,1.093534 -3.381363,-0.828565 -4.814876,-1.979821 -1.330712,-1.068844 -2.422686,-1.105075 -3.994743,-0.365179 -3.976366,1.871993 -1.23951,11.413169 -8.75485,8.076837 C 19.668079,46.70554 21.71304,42.036372 19.195581,40.200871 15.502009,37.507365 12.409413,44.525694 8.8230936,41.984277 7.0430307,40.722776 6.088282,39.309889 7.0772586,37.405288 8.1177526,35.401587 10.66414,33.586588 9.6181497,30.999347 8.4704022,28.160397 3.1918175,28.753831 0.79645108,26.983065 M 23.265876,17.175083 c 9.563269,-2.272415 13.381339,12.551222 3.611158,14.806923 -3.217862,0.742901 -6.25918,-0.38663 -8.170004,-3.000577 -3.148527,-4.307024 -0.739965,-10.547261 4.558846,-11.806346 m 34.099354,5.302992 c 2.816709,-0.330704 3.206706,4.317302 5.628188,4.889122 3.231185,0.763186 3.232397,-5.071347 6.421045,-4.335499 5.459674,1.260127 0.530046,5.585128 2.936269,8.100647 2.212841,2.313669 5.652272,-0.996573 7.491949,1.190823 3.846685,4.572799 -3.822604,4.812349 -3.693002,8.684215 0.107059,3.202043 6.787764,3.832176 3.660899,7.915293 -1.661927,2.170227 -5.081297,-0.826563 -7.142866,0.705518 -3.205498,2.381877 2.149044,8.04556 -3.654484,8.658071 -2.693134,0.284194 -3.103586,-3.776869 -5.23378,-4.64953 -2.917405,-1.194938 -3.760411,4.733698 -6.809844,4.021388 -5.344104,-1.24827 -0.354284,-5.506162 -3.269293,-8.099688 -2.638552,-2.347402 -7.363153,1.840319 -8.130318,-3.328318 -0.494726,-3.333902 4.532005,-2.806781 4.532005,-6.024841 0,-3.544647 -6.449933,-4.139289 -3.575854,-7.951414 1.952839,-2.590453 4.918803,0.779955 7.174562,-1.025023 3.007303,-2.406307 -1.834871,-8.10515 3.664524,-8.750764 M 0.39521275,26.582191 0.79645108,26.983065 M 61.383656,34.460141 c 7.934509,-2.473565 10.810997,9.649856 3.611158,11.903085 -2.38698,0.747183 -4.71779,-0.03967 -6.283421,-1.784627 -2.948708,-3.28661 -1.714901,-8.750789 2.672263,-10.118458 M 20.841425,50.375377 c 1.814127,0.217263 2.310139,3.069347 4.040845,3.60049 2.801255,0.859828 4.065121,-5.488115 6.96845,-2.282873 1.50108,1.657131 -0.702689,4.000938 1.120464,5.611972 1.788565,1.580182 4.52715,-0.929588 5.86937,1.405394 1.7011,2.959516 -3.179059,3.573234 -3.235953,5.95791 -0.05529,2.318967 3.762466,2.791563 3.421694,5.204319 -0.494286,3.499879 -4.644834,0.487445 -6.404028,2.149379 -1.875354,1.771783 0.754208,4.371347 -1.063808,5.986786 -3.199527,2.843672 -3.767521,-3.56762 -6.673059,-2.990394 -1.952714,0.387645 -2.274348,3.407271 -4.432535,3.158745 -4.063274,-0.467394 -0.590706,-4.689603 -2.865334,-6.535548 -1.624136,-1.318016 -4.210489,0.688677 -5.673689,-1.060651 -0.59853,-0.715935 -0.871533,-1.755753 -0.368739,-2.578719 0.984643,-1.611829 3.175853,-1.597803 3.175853,-3.744384 0,-2.615979 -4.9147872,-3.435336 -2.684215,-6.279804 1.396636,-1.781004 3.862294,0.39043 5.552034,-0.787683 2.284939,-1.592986 -1.060516,-7.332042 3.25265,-6.814939 m 2.825692,9.374417 c 5.884179,-2.24 9.337731,6.915948 3.609592,9.46059 -5.982686,2.65807 -10.10442,-6.987724 -3.609592,-9.46059"
   id="path12676"
   inkscape:label="gears" />
	
<circle
   fill="url(#SVGID_2_)"
   cx="43"
   cy="43"
   r="32.025002"
   id="circle1064"
   style="display:inline;fill:url(#SVGID_2_)"
   transform="rotate(-90,43,43)" /><path
   style="display:inline;fill:none;stroke:#424242;stroke-width:2.26772;stroke-dasharray:none;stroke-opacity:1"
   d="m 21.375263,34.148275 c 1.679607,1.311784 -0.01,3.667171 2.165212,4.326983 0.04112,1.390009 0.821959,2.448831 0.969196,3.786113 0.202048,1.834914 -0.261474,3.806664 -0.133026,5.679174 0.276312,4.027609 1.682875,7.248236 3.891654,10.547024 0.888117,1.326477 0.89225,2.888521 2.314093,3.866411 2.439934,1.678061 5.26206,-0.299639 7.843852,0.19337 1.586772,0.303168 2.906787,1.264012 4.60105,1.225346 1.797388,-0.04084 3.416962,-1.329742 5.142372,-1.249691 2.130006,0.0986 5.029494,1.199663 7.032844,0.16795 1.794944,-0.924359 1.748397,-2.935871 2.715712,-4.473842 3.353343,-5.332996 3.542545,-9.595362 3.529275,-15.685308 -0.0031,-1.409397 1.055264,-2.385321 0.795978,-3.786103 1.573573,-0.708853 2.293223,-1.949585 0.541313,-2.974811 v -0.540872 l 1.894544,-1.081744 c 0.06119,1.336581 1.432281,5.582649 3.246457,3.182413 1.371384,-1.814739 1.322392,-6.018725 0.502601,-8.046095 -0.860684,-2.128461 -5.947275,-3.344047 -8.07946,-3.229805 -0.931589,0.04984 -1.771415,0.684936 -2.706517,0.424855 -2.788772,-0.77569 -5.091187,-3.010936 -7.848843,-3.931771 -2.356561,-0.786827 -4.666295,0.240122 -7.036919,0.239986 -2.014613,-1.26e-4 -3.926541,-0.860741 -5.954307,-0.395643 -3.021029,0.692937 -5.391113,3.464372 -8.390171,4.11874 -1.014526,0.22135 -1.962125,-0.425417 -2.977151,-0.45992 -1.64552,-0.05592 -5.708938,0.909218 -6.930194,2.016173 -1.857721,1.683826 -2.069405,7.721613 -0.261042,9.509525 1.990153,1.967613 3.071284,-2.111981 3.131475,-3.428458 m 45.739925,2.974796 c -2.541947,-1.328844 -0.679334,-4.463067 -2.364947,-6.06269 -0.697468,-0.661918 -1.364074,0.25512 -1.438492,0.926699 -0.253611,2.288678 -1.234721,3.138013 -0.256318,5.406439 l -2.165209,1.081739 0.811951,0.811316 v 0.270428 c -1.976007,2.334596 -0.901254,6.54998 -1.106953,9.46528 -0.259283,3.678212 -1.995491,6.098069 -3.735512,9.194831 -0.554832,0.987095 -0.520997,2.2787 -1.288566,3.138696 -1.046066,1.172071 -3.665696,1.308101 -4.670881,-0.0082 -1.388181,-1.815683 -1.587906,-4.659041 -2.878913,-6.647582 -1.164334,-1.793518 -3.368777,-1.982561 -4.445165,-3.404242 -0.970114,-1.281327 -0.359699,-5.394121 -0.0079,-6.872326 h -1.082594 c 0.352232,1.478474 0.962414,5.590732 -0.0079,6.872326 -0.682695,0.9019 -2.334119,1.142868 -3.190164,2.063689 -2.081788,2.239764 -2.823911,8.748351 -6.275088,8.840572 -2.766507,0.07391 -2.679711,-2.249213 -3.849677,-3.984336 -3.199626,-4.745357 -4.33552,-9.423071 -3.809782,-15.144443 0.164365,-1.788637 -1.424891,-3.192389 0.0812,-4.597422 -0.698547,-0.238307 -1.754411,-0.474199 -2.129504,-1.188151 -0.769675,-1.465126 -0.01903,-4.22725 -0.697708,-5.822123 -1.066176,-2.50562 -1.999487,1.978207 -2.051396,2.683301 -0.08924,1.211528 -0.479972,2.19805 -1.075701,3.245233 h -0.541272 c -0.969692,-1.930619 -1.716349,-6.823138 0.116328,-8.50144 1.055456,-0.966544 4.153047,-1.729284 5.56733,-1.955634 1.353037,-0.216566 2.48498,0.768284 3.789109,0.493274 3.112961,-0.656398 5.551147,-3.510326 8.660819,-4.226192 1.880423,-0.432895 3.561741,0.491308 5.413004,0.512728 2.358989,0.02732 4.712559,-1.133276 7.036907,-0.357066 2.781748,0.92903 5.087697,3.076003 7.848872,4.025672 1.345134,0.462672 2.435576,-0.619231 3.789099,-0.445307 1.544594,0.198497 5.036528,0.936649 6.065539,2.152428 1.507522,1.781021 0.812496,6.145431 -0.111257,8.031099 m -45.197995,-5.6781 v 1.081749 h -0.270594 l 0.270656,-1.081749 m 42.492117,0 v 1.35219 h -0.270664 l 0.270664,-1.35219 m -34.913906,8.653968 1.623902,-0.270427 c 0.308699,1.086793 0.806893,1.584598 1.894551,1.893047 v 0.270433 l -3.789113,-1.352177 0.801298,7.031342 -0.530638,9.735709 h 0.27065 c 0.707127,-5.247273 2.970708,-12.38571 7.578199,-15.454507 1.167307,-0.777519 2.446066,-0.927751 3.789111,-1.160648 9.625685,-1.669151 14.077609,8.610248 15.156425,16.615155 h 0.270648 l 0.270674,-16.767023 -3.789098,1.352178 v -0.270434 c 1.056625,-0.362969 1.583583,-0.811685 1.894551,-1.893045 l 1.623906,0.270427 c -0.40705,-2.014263 -2.118372,-3.024882 -4.059748,-2.149913 -2.965238,1.336414 -7.33463,4.48941 -9.202117,-0.284019 -1.521162,0.963566 -2.25847,2.650422 -4.330419,2.653888 -2.936998,0.0055 -8.344433,-5.803445 -9.472752,-0.219956 m 11.637961,4.597419 -1.353257,1.893059 v 0.270434 l 1.623902,0.540878 0.270663,-2.704371 h -0.541308 m 3.247811,0 v 2.704371 l 1.894549,-0.540878 v -0.27042 l -1.353215,-1.893058 h -0.541304 m 5.954306,16.496624 v 0.270439 l -2.977148,0.225005 -5.413014,1.077412 -5.683666,-0.76154 c -0.256357,-1.365174 0.565636,-2.538592 1.085325,-3.786122 1.395878,-3.350968 4.125967,-7.052431 8.383393,-4.86027 2.59933,1.338384 3.033174,5.609654 4.60511,7.835076 z"
   id="path13166"
   inkscape:label="dog" /></g>
</svg>
